<svg fill="#60a5fa" width="150" height="100" viewBox="0 0 381.24191 60.529082" version="1.1" id="svg1"
  xmlns="http://www.w3.org/2000/svg" xmlns:svg="http://www.w3.org/2000/svg">
  <g id="layer1" transform="matrix(0.77181892,0,0,0.77181892,-43.119061,-246.24545)">
    <g id="g1">
      <path
        d="m 134.35298,378.52002 h 54.29229 c 9.05042,0 19.10072,-6.11991 19.12493,-17.34882 3.1e-4,-14.26235 -17.00433,-22.00582 -28.68559,-14.00483 -5.85335,-11.00522 -20.05475,-14.9631 -31.31126,-10.25984 z"
        id="path18" />
      <path id="path17"
        d="m 113.3248,319.04561 c -15.634217,0.0132 -28.938067,10.63314 -31.376377,25.04653 -12.01407,-3.48035 -26.081687,4.09006 -26.081613,16.75299 0.03754,12.65428 13.422923,17.67489 18.988503,17.67489 h 12.76305 l 11.08253,-35.14153 c 2.620617,-8.30958 11.412907,-12.8669 19.713517,-10.21798 8.30061,2.64892 12.87323,11.47112 10.2526,19.7807 l -8.06669,25.57881 h 8.46099 l 13.16715,-42.03982 c -5.14065,-10.59654 -16.44067,-17.41268 -28.90366,-17.43459 z" />
      <ellipse id="path22" cx="128.65105" cy="391.72504" rx="5.7445183" ry="5.7445168" />
    </g>
    <path
      d="m 486.9925,361.52493 v -31.01757 h 11.22678 v 30.082 c 0,6.34244 2.29084,11.08284 9.13975,11.08284 2.73473,0 4.9417,-0.83961 6.62092,-2.51884 1.72721,-1.67921 2.59079,-4.53386 2.59079,-8.564 v -30.082 h 11.22677 v 31.01757 c 0,6.42722 -1.94539,14.93256 -11.3707,18.42341 -7.66497,2.83888 -29.43431,3.6555 -29.43431,-18.42341 z m 51.60005,-31.01757 h 11.22678 v 49.87278 h -11.22678 z"
      id="text22" aria-label="UI" />
    <path fill="#ffffff"
      d="m 259.37352,377.5068 c -5.82318,-10.34268 -13.3603,-22.1138 -22.38153,-32.67274 v 32.67274 h -11.08283 v -49.87271 h 9.13974 c 9.3284,9.83947 17.95432,22.46955 22.59743,29.43427 v -29.43427 h 11.15478 v 49.87271 z m 30.94559,0 h -10.723 v -37.85433 h 10.723 z m -5.39749,-42.46017 c -8.77542,0 -8.31539,-12.66608 0,-12.66608 8.27673,0 8.72635,12.66608 0,12.66608 z m 36.27102,22.38154 c 0,-7.17968 -1.88109,-9.49956 -5.90124,-9.49956 -1.28565,0 -3.89737,0.32027 -4.17406,0.35984 v 29.21835 h -10.72297 v -36.55893 c 5.85512,-1.44324 11.02521,-2.159 15.54473,-2.159 3.7266,0 7.75228,0.81799 10.86691,3.52637 3.65846,-2.6295 8.13622,-3.52637 10.79497,-3.52637 4.62662,0 9.31001,1.11463 12.09034,4.82176 2.63322,3.58905 2.98634,8.21213 3.02259,12.52215 v 21.37402 h -10.723 v -20.07863 c 0,-4.43263 -0.42671,-11.22816 -8.34807,-9.06776 -1.00754,0.28787 -1.84715,0.64771 -2.51884,1.0795 0.62784,2.06285 0.79162,4.39788 0.79162,7.41255 v 20.65434 h -10.72298 z m 65.48937,0.8636 c 0,-15.04296 -12.46436,-9.5367 -13.52967,-8.85186 v 19.50288 c 7.00215,1.24291 13.52967,-0.35866 13.52967,-10.65106 z m 10.93888,0.28786 c 0,27.85575 -33.25761,18.2839 -35.19156,17.70373 v -52.89529 l 10.72301,-1.72717 v 18.85519 c 10.36987,-4.5628 24.46855,-0.35553 24.46855,18.06354 z m 40.58902,17.63177 c -7.35508,2.12907 -15.70337,2.15899 -16.12046,2.15899 -10.11365,0 -16.55227,-4.45075 -16.55227,-17.63176 v -21.08616 h 10.72301 v 19.79076 c 0,8.43126 1.94678,10.75338 11.22675,9.42764 v -29.21836 h 10.72297 z m 20.94229,-6.40501 c 4.29362,0 5.39749,-0.83281 5.39749,-2.80669 0,-1.03065 -0.39482,-2.1914 -6.40501,-4.46191 -6.35301,-2.35967 -11.08281,-4.80046 -11.08281,-12.37821 0,-10.46548 11.54198,-12.89279 21.44596,-10.86693 2.11102,0.38382 3.79023,0.81562 5.03765,1.2954 l -1.87112,8.34808 c -5.21514,-1.86747 -14.03345,-2.97973 -14.03345,1.15147 0,1.82559 1.2218,2.64419 5.68535,4.31799 9.40684,3.45557 11.87444,6.62698 11.87444,12.73806 0,14.01746 -20.32494,11.58339 -24.54053,10.50708 -2.20697,-0.57574 -3.74226,-1.05552 -4.60585,-1.43933 l 1.79917,-8.70794 c 5.19893,2.05221 8.92374,2.30293 11.29871,2.30293 z"
      id="text23" aria-label="Nimbus" />
  </g>
</svg>